<svg xmlns="http://www.w3.org/2000/svg" viewBox="0 0 200 200"><path d="M175 0c13.8 0 25 11.2 25 25v112.5c0 13.8-11.2 25-25 25h-56.2L70 199.1c-3.1 2.3-7.5 0-7.5-3.8v-32.8H25c-13.8 0-25-11.2-25-25V25C0 11.2 11.2 0 25 0h150zM50 93.7c6.9 0 12.5-5.6 12.5-12.5S56.9 68.7 50 68.7s-12.5 5.6-12.5 12.5c0 7 5.6 12.5 12.5 12.5zm50 0c6.9 0 12.5-5.6 12.5-12.5s-5.6-12.5-12.5-12.5-12.5 5.6-12.5 12.5c0 7 5.6 12.5 12.5 12.5zm50 0c6.9 0 12.5-5.6 12.5-12.5s-5.6-12.5-12.5-12.5-12.5 5.6-12.5 12.5c0 7 5.6 12.5 12.5 12.5z" fill="#fec10d"/></svg>