<svg xmlns="http://www.w3.org/2000/svg" viewBox="0 0 200 200"><path d="M106.642926 197.254748l30.93611-30.935728c5.905925-5.906307 1.723102-16.004593-6.629194-16.004593h-20.01194v-39.376525h39.376144v20.011177c-.000382 8.352677 10.098285 12.535501 16.004211 6.629575l30.935728-30.936109c3.661353-3.660972 3.661353-9.5970337 0-13.2580056L166.318257 62.44843c-5.905926-5.9059256-16.004211-1.7231021-16.004211 6.6291935v19.9852371h-39.376525V49.6863359h19.985237c8.352296 0 12.535119-10.0986673 6.629194-16.0045929l-30.93611-30.93572794c-3.660972-3.66135342-9.5966521-3.66135342-13.2580055 0L62.421727 33.681743c-5.9059255 5.9063071-1.723102 16.0045929 6.6291936 16.0045929h20.01194v39.3765247H49.6863359V69.0516835c0-8.352677-10.0986673-12.5355006-16.0045929-6.629575L2.74601506 93.3582179c-3.66135342 3.660972-3.66135342 9.5970341 0 13.2580061L33.681743 137.552333c5.9063071 5.905926 16.0045929 1.723102 16.0045929-6.629194v-19.985237h39.3765247l.0003815 39.376906H69.078005c-8.3522956-.000381-12.5351191 10.098286-6.6291936 16.004212l30.9361095 30.935728c3.6609719 3.661353 9.5966521 3.661353 13.2580051 0z" fill="#009DDB" fill-rule="nonzero"/></svg>