<svg viewBox="0 0 200 200" xmlns="http://www.w3.org/2000/svg"><path d="M139.690417 130.785664l11.111349-11.111348c1.736148-1.736148 4.757114-.520845 4.757114 1.978938v50.487325c0 9.201586-7.465438 16.667023-16.667023 16.667023H16.6670228C7.4654373 188.807602 0 181.342165 0 172.140579V49.9157452c0-9.2015855 7.4654373-16.6670228 16.6670228-16.6670228H111.63433c2.465195 0 3.715425 2.9860392 1.979277 4.7571139l-11.111349 11.1113485c-.520844.5208445-1.215304.7985604-1.979277.7985604H16.6670228V172.140579H138.891857v-39.410564c0-.729047.277716-1.423506.79856-1.944351zm54.376366-70.0712126l-91.182708 91.1827076-31.3893561 3.472296c-9.0974844 1.006763-16.8406376-6.666877-15.8338751-15.833875l3.4722964-31.389356 91.1827078-91.18270749c7.951355-7.95135535 20.798852-7.95135535 28.71562 0l15.000388 15.00038839c7.951695 7.9516944 7.951695 20.8337785.034927 28.7505465zm-34.30656 10.7295316l-20.173907-20.1739066-64.5151996 64.5497866-2.5347085 22.674028 22.6740278-2.534708 64.5497873-64.5152zm22.500752-27.6742703l-15.000389-15.0003884c-1.423845-1.4235059-3.750012-1.4235059-5.13893 0l-10.729532 10.7295316 20.173907 20.1739066L182.295562 48.94357c1.388919-1.4584323 1.388919-3.7500123-.034587-5.1738573z" fill="#009DDB" fill-rule="nonzero"/></svg>