<svg xmlns="http://www.w3.org/2000/svg" xmlns:xlink="http://www.w3.org/1999/xlink" viewBox="0 0 200 200"><path d="M100 0C44.7754032 0 0 44.7915323 0 100c0 55.240726 44.7754032 100 100 100 55.224597 0 100-44.759274 100-100C200 44.7915323 155.224597 0 100 0zm0 44.3548387c9.353226 0 16.935484 7.5822581 16.935484 16.9354839S109.353226 78.2258065 100 78.2258065c-9.3532258 0-16.9354839-7.5822581-16.9354839-16.9354839S90.6467742 44.3548387 100 44.3548387zm22.580645 102.4193553c0 2.672177-2.166532 4.838709-4.83871 4.838709H82.2580645c-2.6721774 0-4.8387097-2.166532-4.8387097-4.838709v-9.67742c0-2.672177 2.1665323-4.838709 4.8387097-4.838709h4.8387097v-25.806452h-4.8387097c-2.6721774 0-4.8387097-2.166532-4.8387097-4.83871v-9.6774191c0-2.6721774 2.1665323-4.8387097 4.8387097-4.8387097h25.8064515c2.672178 0 4.83871 2.1665323 4.83871 4.8387097v40.3225811h4.838709c2.672178 0 4.83871 2.166532 4.83871 4.838709v9.67742z" fill="#009DDB"/></svg>