<svg width="200px" height="200px" viewBox="0 0 200 200" version="1.1" xmlns="http://www.w3.org/2000/svg" xmlns:xlink="http://www.w3.org/1999/xlink"><title>image thumbnail</title> <desc>Created with Sketch.</desc> <g id="Symbols" stroke="none" stroke-width="1" fill="none" fill-rule="evenodd"> <g id="icons-for-export" fill="#D8D8D8"> <g id="image-thumbnail"> <rect id="Rectangle" x="0" y="0" width="200" height="38"></rect> <rect id="Rectangle" x="0" y="162" width="200" height="38"></rect> <path d="M181.25,175 C191.605377,175 200,166.605377 200,156.25 L200,43.75 C200,33.3946228 191.605377,25 181.25,25 L18.75,25 C8.3946228,25 0,33.3946228 0,43.75 L0,156.25 C0,166.605377 8.3946228,175 18.75,175 L181.25,175 Z M43,90 C30.8498186,90 21,80.1501814 21,68 C21,55.8498186 30.8498186,46 43,46 C55.1501814,46 65,55.8498186 65,68 C65,80.1501814 55.1501814,90 43,90 Z M175,150 L25,150 L25,131.322915 L52.9350281,103.496141 C54.7660828,101.672587 57.7339172,101.672587 59.5645905,103.496141 L81.25,125.09722 L134.185028,72.3676656 C136.016083,70.5441115 138.983917,70.5441115 140.81459,72.3676656 L175,106.420135 L175,150 Z" id="" fill-rule="nonzero"></path> </g> </g> </g> </svg>