<svg xmlns="http://www.w3.org/2000/svg" viewBox="0 0 200 200"><path fill="FEC10D" d="M100,0C44.8,0,0,44.8,0,100s44.8,100,100,100s100-44.8,100-100S155.2,0,100,0z M124.4,122.7
	c-2.7,1-5.2,1.5-7.5,1.5c-2.5,0-4.8-0.4-6.9-1.2c-1.6-0.6-3.2-1.2-4.7-2l-1.5-0.7c-2-1-4-1.9-6.1-2.7c-2-0.8-4.2-1.2-6.5-1.2
	c-2.1,0-4.4,0.5-6.9,1.4s-5.1,2.6-8.1,5.1l-5.9-13.3c4.2-3.4,7.9-5.7,11.3-7c3.3-1.3,6.4-1.9,9.3-1.9c2.6,0,5,0.4,7.2,1.1
	s4.4,1.6,6.4,2.4c2,0.8,4.1,1.6,6.1,2.4c2,0.8,4,1.1,6.1,1.1c1.6,0,3.2-0.3,4.9-0.8c1.7-0.5,3.5-1.6,5.3-3.1l6.3,13.7
	C130,120,127.1,121.7,124.4,122.7z M124.4,96c-2.7,1-5.2,1.5-7.5,1.5c-2.5,0-4.8-0.4-6.9-1.2c-1.6-0.6-3.2-1.2-4.7-2l-1.5-0.7
	c-2-1-4-1.9-6.1-2.7c-2-0.8-4.2-1.2-6.5-1.2c-2.1,0-4.4,0.5-6.9,1.4c-2.4,0.9-5.1,2.6-8.1,5.1l-5.9-13.3c4.2-3.4,7.9-5.7,11.3-7
	c3.3-1.3,6.4-1.9,9.3-1.9c2.6,0,5,0.4,7.2,1.1c2.2,0.8,4.4,1.6,6.4,2.4c2,0.8,4.1,1.6,6.1,2.4c2,0.8,4,1.1,6.1,1.1
	c1.6,0,3.2-0.3,4.9-0.8c1.7-0.5,3.5-1.6,5.3-3.1l6.3,13.7C130,93.3,127.1,95,124.4,96z"/></svg>
