<svg xmlns="http://www.w3.org/2000/svg" xmlns:xlink="http://www.w3.org/1999/xlink" viewBox="0 0 200 200"><path fill="#FEC10D" d="M100,0C44.8,0,0,44.8,0,100s44.8,100,100,100s100-44.8,100-100S155.2,0,100,0z M104.7,130.7v7.4
	c0,1-0.8,1.9-1.9,1.9h-6.2c-1,0-1.9-0.8-1.9-1.9v-7.5c-6.2-1-11.7-3.9-15.4-7.5c-0.7-0.7-0.8-1.7-0.2-2.5l4.7-6.4
	c0.6-0.9,1.9-1,2.7-0.3c3.9,3.1,8.9,5.6,13.7,5.6c5.6,0,8.1-3.3,8.1-6.4c0-9.2-28.9-7.2-28.9-26.5c0-8.2,6-14.9,15.2-17v-7.8
	c0-1,0.8-1.9,1.9-1.9h6.2c1,0,1.9,0.8,1.9,1.9v7.4c5,0.6,10.5,2.6,14.3,5.9c0.7,0.6,0.8,1.5,0.4,2.3l-3.7,6.8
	c-0.5,1-1.8,1.3-2.7,0.6c-3.5-2.5-7.8-4.4-11.9-4.4c-5.2,0-8.6,2.4-8.6,6c0,9.8,28.9,7.3,28.9,26C121.3,121.5,115,129.1,104.7,130.7
	z"/></svg>