<svg viewBox="0 0 200 200" xmlns="http://www.w3.org/2000/svg"><g fill="#A1A1A1" fill-rule="evenodd"><path d="M87.9499366 114.7814857c-6.5582501 8.5893795-17.6954495 11.9602152-27.7374151 8.3951328-10.0419655-3.5650824-16.7791896-13.281667-16.7791896-24.1993458S50.170556 78.3430093 60.2125215 74.777927c10.0419656-3.5650824 21.179165-.1942467 27.7374151 8.3951327h14.2722854c-7.2411024-16.3979383-24.6325603-25.384225-41.7600353-21.5776995-17.1274749 3.8065256-29.3510756 19.3746627-29.3510756 37.3819125S43.3347118 132.55266 60.4621867 136.359185c17.127475 3.806526 34.5189329-5.179761 41.7600353-21.5776993H87.9499366zM191.831161 123.7272727l-22.942272-24.75 22.942272-24.75L200 83.0509137l-14.715498 15.926359L200 114.9036318z"/><path d="M168.888889 83.0509137l-8.759242-8.823641-18.388197 18.4920986H66.6666667v12.5158028H141.74145l18.388197 18.4920986 8.759242-8.8236409-15.779061-15.9263591z"/><path d="M120.621552 114.8284891c-7.64687 27.3046019-33.5898466 44.6360239-60.8463886 40.6489359-27.256542-3.987087-47.5157597-28.0769658-47.5157597-56.5001523 0-28.4231865 20.2592177-52.5130653 47.5157597-56.5001526 27.256542-3.9870873 53.1995186 13.344334 60.8463886 40.6489362h12.711781c-7.799461-34.5054319-39.4173439-57.48938669-73.5097203-53.43634442C25.7312364 33.74275415 0 63.5446087 0 98.9772727c0 35.4326643 25.7312364 65.2345183 59.8236127 69.2875613 34.0923764 4.053042 65.7102593-18.930913 73.5097203-53.4363449h-12.711781z"/></g></svg>