<svg xmlns="http://www.w3.org/2000/svg" xmlns:xlink="http://www.w3.org/1999/xlink"><defs><style>
    .sprite-symbol-usage {display: none;}
    .sprite-symbol-usage:target {display: inline;}
  </style><symbol viewBox="0 0 200 200" id="alert-error"><path d="M197.8 163.4c6.4 11.1-1.6 25-14.4 25H16.7c-12.8 0-20.8-13.9-14.4-25L85.6 18.9c6.4-11.1 22.5-11.1 28.9 0l83.3 144.5zM100 133.5c-8.8 0-16 7.1-16 16s7.2 16 16 16 16-7.1 16-16-7.2-16-16-16zM84.8 76.1l2.6 47.2c.1 2.2 1.9 3.9 4.2 3.9h16.9c2.2 0 4-1.7 4.2-3.9l2.6-47.2c.1-2.4-1.8-4.4-4.2-4.4H89c-2.4 0-4.3 2-4.2 4.4z" fill="#de0a01" /></symbol><symbol viewBox="0 0 200 200" id="alert-notification"><path d="M175 0c13.8 0 25 11.2 25 25v112.5c0 13.8-11.2 25-25 25h-56.2L70 199.1c-3.1 2.3-7.5 0-7.5-3.8v-32.8H25c-13.8 0-25-11.2-25-25V25C0 11.2 11.2 0 25 0h150zM50 93.7c6.9 0 12.5-5.6 12.5-12.5S56.9 68.7 50 68.7s-12.5 5.6-12.5 12.5c0 7 5.6 12.5 12.5 12.5zm50 0c6.9 0 12.5-5.6 12.5-12.5s-5.6-12.5-12.5-12.5-12.5 5.6-12.5 12.5c0 7 5.6 12.5 12.5 12.5zm50 0c6.9 0 12.5-5.6 12.5-12.5s-5.6-12.5-12.5-12.5-12.5 5.6-12.5 12.5c0 7 5.6 12.5 12.5 12.5z" fill="#fec10d" /></symbol><symbol viewBox="0 0 200 200" id="alert-success"><path d="M200 100c0 55.2-44.8 100-100 100S0 155.2 0 100 44.8 0 100 0s100 44.8 100 100zM88.4 152.9l74.2-74.2c2.5-2.5 2.5-6.6 0-9.1l-9.1-9.1c-2.5-2.5-6.6-2.5-9.1 0L83.9 121 55.6 92.8c-2.5-2.5-6.6-2.5-9.1 0l-9.1 9.1c-2.5 2.5-2.5 6.6 0 9.1l41.9 41.9c2.5 2.6 6.6 2.6 9.1 0z" fill="#00a76d" /></symbol><symbol viewBox="0 0 200 200" id="caret"><path fill="#009DDB" d="M89.4 160.2l-85-85c-5.9-5.9-5.9-15.4 0-21.2l14.1-14.1c5.9-5.9 15.4-5.9 21.2 0l60.3 60.3 60.3-60.3c5.9-5.9 15.4-5.9 21.2 0L195.6 54c5.9 5.9 5.9 15.4 0 21.2l-85 85c-5.8 5.9-15.3 5.9-21.2 0z" /></symbol><symbol viewBox="0 0 14 14" id="checkbox"><path d="M12 0H2C.9 0 0 .9 0 2v10c0 1.1.9 2 2 2h10c1.1 0 2-.9 2-2V2c0-1.1-.9-2-2-2zm1.2 11.4c0 1-.8 1.8-1.8 1.8H2.6c-1 0-1.8-.8-1.8-1.8V2.6c0-1 .8-1.8 1.8-1.8h8.8c1 0 1.8.8 1.8 1.8v8.8z" fill-rule="evenodd" clip-rule="evenodd" fill="#d3d3d3" /></symbol><symbol viewBox="0 0 14 14" id="checkbox-selected"><path d="M12 0c1.104569 0 2 .895431 2 2v10c0 1.104569-.895431 2-2 2H2c-1.1045695 0-2-.895431-2-2V2C0 .895431.8954305 0 2 0h10zm-1.738701 3.558543l-4.234763 4.233L4.57675 6.341698 3.162536 7.755911l1.45 1.449632-.008092.009854 1.414214 1.414214 5.656854-5.656854-1.414213-1.414214z" fill="#0052D6" fill-rule="evenodd" /></symbol><symbol viewBox="0 0 200 200" id="close"><g fill="#000" fill-rule="nonzero"><path d="M12.2464986 3.92759529L3.92759529 12.2464986 187.093864 195.412767l8.318903-8.318903z" /><path d="M187.0938634 3.92759529l8.31890331 8.31890331L12.246498 195.412767l-8.318903-8.318903z" /></g></symbol><symbol viewBox="0 0 200 200" id="drag"><path d="M106.642926 197.254748l30.93611-30.935728c5.905925-5.906307 1.723102-16.004593-6.629194-16.004593h-20.01194v-39.376525h39.376144v20.011177c-.000382 8.352677 10.098285 12.535501 16.004211 6.629575l30.935728-30.936109c3.661353-3.660972 3.661353-9.5970337 0-13.2580056L166.318257 62.44843c-5.905926-5.9059256-16.004211-1.7231021-16.004211 6.6291935v19.9852371h-39.376525V49.6863359h19.985237c8.352296 0 12.535119-10.0986673 6.629194-16.0045929l-30.93611-30.93572794c-3.660972-3.66135342-9.5966521-3.66135342-13.2580055 0L62.421727 33.681743c-5.9059255 5.9063071-1.723102 16.0045929 6.6291936 16.0045929h20.01194v39.3765247H49.6863359V69.0516835c0-8.352677-10.0986673-12.5355006-16.0045929-6.629575L2.74601506 93.3582179c-3.66135342 3.660972-3.66135342 9.5970341 0 13.2580061L33.681743 137.552333c5.9063071 5.905926 16.0045929 1.723102 16.0045929-6.629194v-19.985237h39.3765247l.0003815 39.376906H69.078005c-8.3522956-.000381-12.5351191 10.098286-6.6291936 16.004212l30.9361095 30.935728c3.6609719 3.661353 9.5966521 3.661353 13.2580051 0z" fill="#009DDB" fill-rule="nonzero" /></symbol><symbol viewBox="0 0 200 200" id="edit"><path d="M139.690417 130.785664l11.111349-11.111348c1.736148-1.736148 4.757114-.520845 4.757114 1.978938v50.487325c0 9.201586-7.465438 16.667023-16.667023 16.667023H16.6670228C7.4654373 188.807602 0 181.342165 0 172.140579V49.9157452c0-9.2015855 7.4654373-16.6670228 16.6670228-16.6670228H111.63433c2.465195 0 3.715425 2.9860392 1.979277 4.7571139l-11.111349 11.1113485c-.520844.5208445-1.215304.7985604-1.979277.7985604H16.6670228V172.140579H138.891857v-39.410564c0-.729047.277716-1.423506.79856-1.944351zm54.376366-70.0712126l-91.182708 91.1827076-31.3893561 3.472296c-9.0974844 1.006763-16.8406376-6.666877-15.8338751-15.833875l3.4722964-31.389356 91.1827078-91.18270749c7.951355-7.95135535 20.798852-7.95135535 28.71562 0l15.000388 15.00038839c7.951695 7.9516944 7.951695 20.8337785.034927 28.7505465zm-34.30656 10.7295316l-20.173907-20.1739066-64.5151996 64.5497866-2.5347085 22.674028 22.6740278-2.534708 64.5497873-64.5152zm22.500752-27.6742703l-15.000389-15.0003884c-1.423845-1.4235059-3.750012-1.4235059-5.13893 0l-10.729532 10.7295316 20.173907 20.1739066L182.295562 48.94357c1.388919-1.4584323 1.388919-3.7500123-.034587-5.1738573z" fill="#009DDB" fill-rule="nonzero" /></symbol><symbol viewBox="0 0 200 200" id="fallback"><title>image thumbnail</title> <desc>Created with Sketch.</desc> <g id="fallback_Symbols" stroke="none" stroke-width="1" fill="none" fill-rule="evenodd"> <g id="fallback_icons-for-export" fill="#D8D8D8"> <g id="fallback_image-thumbnail"> <rect id="fallback_Rectangle" x="0" y="0" width="200" height="38" /> <rect id="fallback_Rectangle" x="0" y="162" width="200" height="38" /> <path d="M181.25,175 C191.605377,175 200,166.605377 200,156.25 L200,43.75 C200,33.3946228 191.605377,25 181.25,25 L18.75,25 C8.3946228,25 0,33.3946228 0,43.75 L0,156.25 C0,166.605377 8.3946228,175 18.75,175 L181.25,175 Z M43,90 C30.8498186,90 21,80.1501814 21,68 C21,55.8498186 30.8498186,46 43,46 C55.1501814,46 65,55.8498186 65,68 C65,80.1501814 55.1501814,90 43,90 Z M175,150 L25,150 L25,131.322915 L52.9350281,103.496141 C54.7660828,101.672587 57.7339172,101.672587 59.5645905,103.496141 L81.25,125.09722 L134.185028,72.3676656 C136.016083,70.5441115 138.983917,70.5441115 140.81459,72.3676656 L175,106.420135 L175,150 Z" id="fallback_" fill-rule="nonzero" /> </g> </g> </g> </symbol><symbol viewBox="0 0 200 200" id="footnote-dollar"><path fill="#FEC10D" d="M100,0C44.8,0,0,44.8,0,100s44.8,100,100,100s100-44.8,100-100S155.2,0,100,0z M104.7,130.7v7.4
	c0,1-0.8,1.9-1.9,1.9h-6.2c-1,0-1.9-0.8-1.9-1.9v-7.5c-6.2-1-11.7-3.9-15.4-7.5c-0.7-0.7-0.8-1.7-0.2-2.5l4.7-6.4
	c0.6-0.9,1.9-1,2.7-0.3c3.9,3.1,8.9,5.6,13.7,5.6c5.6,0,8.1-3.3,8.1-6.4c0-9.2-28.9-7.2-28.9-26.5c0-8.2,6-14.9,15.2-17v-7.8
	c0-1,0.8-1.9,1.9-1.9h6.2c1,0,1.9,0.8,1.9,1.9v7.4c5,0.6,10.5,2.6,14.3,5.9c0.7,0.6,0.8,1.5,0.4,2.3l-3.7,6.8
	c-0.5,1-1.8,1.3-2.7,0.6c-3.5-2.5-7.8-4.4-11.9-4.4c-5.2,0-8.6,2.4-8.6,6c0,9.8,28.9,7.3,28.9,26C121.3,121.5,115,129.1,104.7,130.7
	z" /></symbol><symbol viewBox="0 0 200 200" id="footnote-equals"><path fill="#FEC10D" d="M100,0C44.8,0,0,44.8,0,100s44.8,100,100,100s100-44.8,100-100S155.2,0,100,0z M128,118.3H69.1v-14.9H128V118.3
	z M128,92.9H69.1V78H128V92.9z" /></symbol><symbol viewBox="0 0 200 200" id="footnote-estimate"><path fill="FEC10D" d="M100,0C44.8,0,0,44.8,0,100s44.8,100,100,100s100-44.8,100-100S155.2,0,100,0z M124.4,122.7
	c-2.7,1-5.2,1.5-7.5,1.5c-2.5,0-4.8-0.4-6.9-1.2c-1.6-0.6-3.2-1.2-4.7-2l-1.5-0.7c-2-1-4-1.9-6.1-2.7c-2-0.8-4.2-1.2-6.5-1.2
	c-2.1,0-4.4,0.5-6.9,1.4s-5.1,2.6-8.1,5.1l-5.9-13.3c4.2-3.4,7.9-5.7,11.3-7c3.3-1.3,6.4-1.9,9.3-1.9c2.6,0,5,0.4,7.2,1.1
	s4.4,1.6,6.4,2.4c2,0.8,4.1,1.6,6.1,2.4c2,0.8,4,1.1,6.1,1.1c1.6,0,3.2-0.3,4.9-0.8c1.7-0.5,3.5-1.6,5.3-3.1l6.3,13.7
	C130,120,127.1,121.7,124.4,122.7z M124.4,96c-2.7,1-5.2,1.5-7.5,1.5c-2.5,0-4.8-0.4-6.9-1.2c-1.6-0.6-3.2-1.2-4.7-2l-1.5-0.7
	c-2-1-4-1.9-6.1-2.7c-2-0.8-4.2-1.2-6.5-1.2c-2.1,0-4.4,0.5-6.9,1.4c-2.4,0.9-5.1,2.6-8.1,5.1l-5.9-13.3c4.2-3.4,7.9-5.7,11.3-7
	c3.3-1.3,6.4-1.9,9.3-1.9c2.6,0,5,0.4,7.2,1.1c2.2,0.8,4.4,1.6,6.4,2.4c2,0.8,4.1,1.6,6.1,2.4c2,0.8,4,1.1,6.1,1.1
	c1.6,0,3.2-0.3,4.9-0.8c1.7-0.5,3.5-1.6,5.3-3.1l6.3,13.7C130,93.3,127.1,95,124.4,96z" /></symbol><symbol viewBox="0 0 200 200" id="info"><path d="M100 0C44.7754032 0 0 44.7915323 0 100c0 55.240726 44.7754032 100 100 100 55.224597 0 100-44.759274 100-100C200 44.7915323 155.224597 0 100 0zm0 44.3548387c9.353226 0 16.935484 7.5822581 16.935484 16.9354839S109.353226 78.2258065 100 78.2258065c-9.3532258 0-16.9354839-7.5822581-16.9354839-16.9354839S90.6467742 44.3548387 100 44.3548387zm22.580645 102.4193553c0 2.672177-2.166532 4.838709-4.83871 4.838709H82.2580645c-2.6721774 0-4.8387097-2.166532-4.8387097-4.838709v-9.67742c0-2.672177 2.1665323-4.838709 4.8387097-4.838709h4.8387097v-25.806452h-4.8387097c-2.6721774 0-4.8387097-2.166532-4.8387097-4.83871v-9.6774191c0-2.6721774 2.1665323-4.8387097 4.8387097-4.8387097h25.8064515c2.672178 0 4.83871 2.1665323 4.83871 4.8387097v40.3225811h4.838709c2.672178 0 4.83871 2.166532 4.83871 4.838709v9.67742z" fill="#009DDB" /></symbol><symbol class="lds-default" viewBox="0 0 100 100" preserveAspectRatio="xMidYMid" id="loading-spinner"><circle cx="75" cy="50" fill="undefined" r="3"><animate attributeName="r" values="3;3;5;3;3" dur="1s" repeatCount="indefinite" begin="-0.917s"></animate><animate attributeName="fill" values="#85a2b6;#85a2b6;#093E60;#85a2b6;#85a2b6" repeatCount="indefinite" dur="1s" begin="-0.917s"></animate></circle><circle cx="71.651" cy="62.5" fill="undefined" r="3"><animate attributeName="r" values="3;3;5;3;3" dur="1s" repeatCount="indefinite" begin="-0.833s"></animate><animate attributeName="fill" values="#85a2b6;#85a2b6;#093E60;#85a2b6;#85a2b6" repeatCount="indefinite" dur="1s" begin="-0.833s"></animate></circle><circle cx="62.5" cy="71.651" fill="undefined" r="3"><animate attributeName="r" values="3;3;5;3;3" dur="1s" repeatCount="indefinite" begin="-0.75s"></animate><animate attributeName="fill" values="#85a2b6;#85a2b6;#093E60;#85a2b6;#85a2b6" repeatCount="indefinite" dur="1s" begin="-0.75s"></animate></circle><circle cx="50" cy="75" fill="undefined" r="3"><animate attributeName="r" values="3;3;5;3;3" dur="1s" repeatCount="indefinite" begin="-0.667s"></animate><animate attributeName="fill" values="#85a2b6;#85a2b6;#093E60;#85a2b6;#85a2b6" repeatCount="indefinite" dur="1s" begin="-0.667s"></animate></circle><circle cx="37.5" cy="71.651" fill="undefined" r="3.40686"><animate attributeName="r" values="3;3;5;3;3" dur="1s" repeatCount="indefinite" begin="-0.583s"></animate><animate attributeName="fill" values="#85a2b6;#85a2b6;#093E60;#85a2b6;#85a2b6" repeatCount="indefinite" dur="1s" begin="-0.583s"></animate></circle><circle cx="28.349" cy="62.5" fill="undefined" r="4.07086"><animate attributeName="r" values="3;3;5;3;3" dur="1s" repeatCount="indefinite" begin="-0.5s"></animate><animate attributeName="fill" values="#85a2b6;#85a2b6;#093E60;#85a2b6;#85a2b6" repeatCount="indefinite" dur="1s" begin="-0.5s"></animate></circle><circle cx="25" cy="50" fill="undefined" r="4.73486"><animate attributeName="r" values="3;3;5;3;3" dur="1s" repeatCount="indefinite" begin="-0.417s"></animate><animate attributeName="fill" values="#85a2b6;#85a2b6;#093E60;#85a2b6;#85a2b6" repeatCount="indefinite" dur="1s" begin="-0.417s"></animate></circle><circle cx="28.349" cy="37.5" fill="undefined" r="4.59314"><animate attributeName="r" values="3;3;5;3;3" dur="1s" repeatCount="indefinite" begin="-0.333s"></animate><animate attributeName="fill" values="#85a2b6;#85a2b6;#093E60;#85a2b6;#85a2b6" repeatCount="indefinite" dur="1s" begin="-0.333s"></animate></circle><circle cx="37.5" cy="28.349" fill="undefined" r="3.92914"><animate attributeName="r" values="3;3;5;3;3" dur="1s" repeatCount="indefinite" begin="-0.25s"></animate><animate attributeName="fill" values="#85a2b6;#85a2b6;#093E60;#85a2b6;#85a2b6" repeatCount="indefinite" dur="1s" begin="-0.25s"></animate></circle><circle cx="50" cy="25" fill="undefined" r="3.26514"><animate attributeName="r" values="3;3;5;3;3" dur="1s" repeatCount="indefinite" begin="-0.167s"></animate><animate attributeName="fill" values="#85a2b6;#85a2b6;#093E60;#85a2b6;#85a2b6" repeatCount="indefinite" dur="1s" begin="-0.167s"></animate></circle><circle cx="62.5" cy="28.349" fill="undefined" r="3"><animate attributeName="r" values="3;3;5;3;3" dur="1s" repeatCount="indefinite" begin="-0.083s"></animate><animate attributeName="fill" values="#85a2b6;#85a2b6;#093E60;#85a2b6;#85a2b6" repeatCount="indefinite" dur="1s" begin="-0.083s"></animate></circle><circle cx="71.651" cy="37.5" fill="undefined" r="3"><animate attributeName="r" values="3;3;5;3;3" dur="1s" repeatCount="indefinite" begin="0s"></animate><animate attributeName="fill" values="#85a2b6;#85a2b6;#093E60;#85a2b6;#85a2b6" repeatCount="indefinite" dur="1s" begin="0s"></animate></circle></symbol><symbol viewBox="0 0 200 200" id="pagination"><path d="M200 21.4C200 9.6 190.4 0 178.6 0H21.4C9.6 0 0 9.6 0 21.4v157.1C0 190.4 9.6 200 21.4 200h157.1c11.8 0 21.4-9.6 21.4-21.4V21.4zm-92.4 125.9c-4.2 4.2-11 4.2-15.2 0L31.9 86.8c-4.2-4.2-4.2-11 0-15.2l7.6-7.6c4.2-4.2 11-4.2 15.2 0l45.3 45.3L145.3 64c4.2-4.2 11-4.2 15.2 0l7.6 7.6c4.2 4.2 4.2 11 0 15.2l-60.5 60.5z" fill="#009ddb" /></symbol><symbol viewBox="0 0 200 200" id="radio"><path d="M100 200C44.9 200 0 155.1 0 100S44.9 0 100 0s100 44.9 100 100-44.9 100-100 100zm0-189.9c-49.6 0-89.9 40.3-89.9 89.9s40.3 89.9 89.9 89.9 89.9-40.3 89.9-89.9-40.3-89.9-89.9-89.9z" fill="#6f7878" /></symbol><symbol viewBox="0 0 200 200" id="radio-selected"><path d="M100 0c55.2 0 100 44.8 100 100s-44.8 100-100 100S0 155.2 0 100 44.8 0 100 0zm0 57.1c-23.7 0-42.9 19.2-42.9 42.9s19.2 42.9 42.9 42.9 42.9-19.2 42.9-42.9-19.2-42.9-42.9-42.9z" fill-rule="evenodd" clip-rule="evenodd" fill="#0052d6" /></symbol><symbol viewBox="0 0 200 200" id="required"><path fill="#DE0A01" fill-rule="nonzero" d="M133.333333 198.174863l48.63388-34.972677-47.540983-53.005465L200 99.8142077l-16.393443-56.2841531-61.202185 27.8688525L132.240437 2H68.3060109l9.2896175 69.3989071-61.2021858-27.8688525L0 99.8142077l65.0273224 10.3825133-47.5409836 53.005465 48.6338798 34.972677 33.3333333-63.934426z" /></symbol><symbol viewBox="0 0 200 200" id="search"><path d="M200 188.6l-56.1-56.1c11.4-13.9 18.2-31.6 18.2-51C162.1 37.1 126 1 81.5 1S1 37.1 1 81.5 37.1 162 81.5 162c19.3 0 37.1-6.8 51-18.2l56.1 56.1 11.4-11.3zM17.1 81.5C17.1 46 46 17.1 81.5 17.1S146 46 146 81.5 117.1 146 81.5 146s-64.4-28.9-64.4-64.5z" fill="#d3d3d3" /></symbol><symbol viewBox="0 0 200 200" id="target"><g fill="#A1A1A1" fill-rule="evenodd"><path d="M87.9499366 114.7814857c-6.5582501 8.5893795-17.6954495 11.9602152-27.7374151 8.3951328-10.0419655-3.5650824-16.7791896-13.281667-16.7791896-24.1993458S50.170556 78.3430093 60.2125215 74.777927c10.0419656-3.5650824 21.179165-.1942467 27.7374151 8.3951327h14.2722854c-7.2411024-16.3979383-24.6325603-25.384225-41.7600353-21.5776995-17.1274749 3.8065256-29.3510756 19.3746627-29.3510756 37.3819125S43.3347118 132.55266 60.4621867 136.359185c17.127475 3.806526 34.5189329-5.179761 41.7600353-21.5776993H87.9499366zM191.831161 123.7272727l-22.942272-24.75 22.942272-24.75L200 83.0509137l-14.715498 15.926359L200 114.9036318z" /><path d="M168.888889 83.0509137l-8.759242-8.823641-18.388197 18.4920986H66.6666667v12.5158028H141.74145l18.388197 18.4920986 8.759242-8.8236409-15.779061-15.9263591z" /><path d="M120.621552 114.8284891c-7.64687 27.3046019-33.5898466 44.6360239-60.8463886 40.6489359-27.256542-3.987087-47.5157597-28.0769658-47.5157597-56.5001523 0-28.4231865 20.2592177-52.5130653 47.5157597-56.5001526 27.256542-3.9870873 53.1995186 13.344334 60.8463886 40.6489362h12.711781c-7.799461-34.5054319-39.4173439-57.48938669-73.5097203-53.43634442C25.7312364 33.74275415 0 63.5446087 0 98.9772727c0 35.4326643 25.7312364 65.2345183 59.8236127 69.2875613 34.0923764 4.053042 65.7102593-18.930913 73.5097203-53.4363449h-12.711781z" /></g></symbol></defs><use id="alert-error-usage" xlink:href="#alert-error" class="sprite-symbol-usage" /><use id="alert-notification-usage" xlink:href="#alert-notification" class="sprite-symbol-usage" /><use id="alert-success-usage" xlink:href="#alert-success" class="sprite-symbol-usage" /><use id="caret-usage" xlink:href="#caret" class="sprite-symbol-usage" /><use id="checkbox-usage" xlink:href="#checkbox" class="sprite-symbol-usage" /><use id="checkbox-selected-usage" xlink:href="#checkbox-selected" class="sprite-symbol-usage" /><use id="close-usage" xlink:href="#close" class="sprite-symbol-usage" /><use id="drag-usage" xlink:href="#drag" class="sprite-symbol-usage" /><use id="edit-usage" xlink:href="#edit" class="sprite-symbol-usage" /><use id="fallback-usage" xlink:href="#fallback" class="sprite-symbol-usage" /><use id="footnote-dollar-usage" xlink:href="#footnote-dollar" class="sprite-symbol-usage" /><use id="footnote-equals-usage" xlink:href="#footnote-equals" class="sprite-symbol-usage" /><use id="footnote-estimate-usage" xlink:href="#footnote-estimate" class="sprite-symbol-usage" /><use id="info-usage" xlink:href="#info" class="sprite-symbol-usage" /><use id="loading-spinner-usage" xlink:href="#loading-spinner" class="sprite-symbol-usage" /><use id="pagination-usage" xlink:href="#pagination" class="sprite-symbol-usage" /><use id="radio-usage" xlink:href="#radio" class="sprite-symbol-usage" /><use id="radio-selected-usage" xlink:href="#radio-selected" class="sprite-symbol-usage" /><use id="required-usage" xlink:href="#required" class="sprite-symbol-usage" /><use id="search-usage" xlink:href="#search" class="sprite-symbol-usage" /><use id="target-usage" xlink:href="#target" class="sprite-symbol-usage" /></svg>